<svg id="visual" viewBox="0 0 960 200" width="960" height="200" xmlns="http://www.w3.org/2000/svg" xmlns:xlink="http://www.w3.org/1999/xlink" version="1.1"><path d="M0 160L14.5 146C29 132 58 104 87.2 97.5C116.3 91 145.7 106 174.8 117.3C204 128.7 233 136.3 262 131.7C291 127 320 110 349 108.3C378 106.7 407 120.3 436.2 136.2C465.3 152 494.7 170 523.8 169C553 168 582 148 611 139.3C640 130.7 669 133.3 698 142C727 150.7 756 165.3 785.2 171.5C814.3 177.7 843.7 175.3 872.8 167.2C902 159 931 145 945.5 138L960 131L960 0L945.5 0C931 0 902 0 872.8 0C843.7 0 814.3 0 785.2 0C756 0 727 0 698 0C669 0 640 0 611 0C582 0 553 0 523.8 0C494.7 0 465.3 0 436.2 0C407 0 378 0 349 0C320 0 291 0 262 0C233 0 204 0 174.8 0C145.7 0 116.3 0 87.2 0C58 0 29 0 14.5 0L0 0Z" fill="#9a0cb0"></path><path d="M0 145L14.5 147.8C29 150.7 58 156.3 87.2 145.8C116.3 135.3 145.7 108.7 174.8 108.2C204 107.7 233 133.3 262 130.3C291 127.3 320 95.7 349 77.8C378 60 407 56 436.2 68.5C465.3 81 494.7 110 523.8 118C553 126 582 113 611 115.2C640 117.3 669 134.7 698 143.5C727 152.3 756 152.7 785.2 153C814.3 153.3 843.7 153.7 872.8 146C902 138.3 931 122.7 945.5 114.8L960 107L960 0L945.5 0C931 0 902 0 872.8 0C843.7 0 814.3 0 785.2 0C756 0 727 0 698 0C669 0 640 0 611 0C582 0 553 0 523.8 0C494.7 0 465.3 0 436.2 0C407 0 378 0 349 0C320 0 291 0 262 0C233 0 204 0 174.8 0C145.7 0 116.3 0 87.2 0C58 0 29 0 14.5 0L0 0Z" fill="#b740b4"></path><path d="M0 40L14.5 47.5C29 55 58 70 87.2 87.2C116.3 104.3 145.7 123.7 174.8 131.8C204 140 233 137 262 132.7C291 128.3 320 122.7 349 115.8C378 109 407 101 436.2 96.3C465.3 91.7 494.7 90.3 523.8 84.2C553 78 582 67 611 70.2C640 73.3 669 90.7 698 101.8C727 113 756 118 785.2 123C814.3 128 843.7 133 872.8 134.8C902 136.7 931 135.3 945.5 134.7L960 134L960 0L945.5 0C931 0 902 0 872.8 0C843.7 0 814.3 0 785.2 0C756 0 727 0 698 0C669 0 640 0 611 0C582 0 553 0 523.8 0C494.7 0 465.3 0 436.2 0C407 0 378 0 349 0C320 0 291 0 262 0C233 0 204 0 174.8 0C145.7 0 116.3 0 87.2 0C58 0 29 0 14.5 0L0 0Z" fill="#cf66bb"></path><path d="M0 47L14.5 44.7C29 42.3 58 37.7 87.2 36.7C116.3 35.7 145.7 38.3 174.8 42.2C204 46 233 51 262 60.5C291 70 320 84 349 87.2C378 90.3 407 82.7 436.2 81.2C465.3 79.7 494.7 84.3 523.8 83.2C553 82 582 75 611 69.7C640 64.3 669 60.7 698 69.3C727 78 756 99 785.2 100.8C814.3 102.7 843.7 85.3 872.8 71.8C902 58.3 931 48.7 945.5 43.8L960 39L960 0L945.5 0C931 0 902 0 872.8 0C843.7 0 814.3 0 785.2 0C756 0 727 0 698 0C669 0 640 0 611 0C582 0 553 0 523.8 0C494.7 0 465.3 0 436.2 0C407 0 378 0 349 0C320 0 291 0 262 0C233 0 204 0 174.8 0C145.7 0 116.3 0 87.2 0C58 0 29 0 14.5 0L0 0Z" fill="#e28bc5"></path><path d="M0 52L14.5 55.2C29 58.3 58 64.7 87.2 60.8C116.3 57 145.7 43 174.8 40.3C204 37.7 233 46.3 262 52C291 57.7 320 60.3 349 56.7C378 53 407 43 436.2 36.8C465.3 30.7 494.7 28.3 523.8 29.7C553 31 582 36 611 42.5C640 49 669 57 698 61.7C727 66.3 756 67.7 785.2 62.3C814.3 57 843.7 45 872.8 44.2C902 43.3 931 53.7 945.5 58.8L960 64L960 0L945.5 0C931 0 902 0 872.8 0C843.7 0 814.3 0 785.2 0C756 0 727 0 698 0C669 0 640 0 611 0C582 0 553 0 523.8 0C494.7 0 465.3 0 436.2 0C407 0 378 0 349 0C320 0 291 0 262 0C233 0 204 0 174.8 0C145.7 0 116.3 0 87.2 0C58 0 29 0 14.5 0L0 0Z" fill="#f0b0d3"></path><path d="M0 30L14.5 29C29 28 58 26 87.2 23.5C116.3 21 145.7 18 174.8 21.8C204 25.7 233 36.3 262 44.2C291 52 320 57 349 60.5C378 64 407 66 436.2 61.2C465.3 56.3 494.7 44.7 523.8 40.7C553 36.7 582 40.3 611 40.7C640 41 669 38 698 39.2C727 40.3 756 45.7 785.2 50.8C814.3 56 843.7 61 872.8 62C902 63 931 60 945.5 58.5L960 57L960 0L945.5 0C931 0 902 0 872.8 0C843.7 0 814.3 0 785.2 0C756 0 727 0 698 0C669 0 640 0 611 0C582 0 553 0 523.8 0C494.7 0 465.3 0 436.2 0C407 0 378 0 349 0C320 0 291 0 262 0C233 0 204 0 174.8 0C145.7 0 116.3 0 87.2 0C58 0 29 0 14.5 0L0 0Z" fill="#fad5e5"></path><path d="M0 19L14.5 23.3C29 27.7 58 36.3 87.2 34C116.3 31.7 145.7 18.3 174.8 13.2C204 8 233 11 262 12.5C291 14 320 14 349 12.3C378 10.7 407 7.3 436.2 10.8C465.3 14.3 494.7 24.7 523.8 27.5C553 30.3 582 25.7 611 20.5C640 15.3 669 9.7 698 9.7C727 9.7 756 15.3 785.2 18.8C814.3 22.3 843.7 23.7 872.8 27.2C902 30.7 931 36.3 945.5 39.2L960 42L960 0L945.5 0C931 0 902 0 872.8 0C843.7 0 814.3 0 785.2 0C756 0 727 0 698 0C669 0 640 0 611 0C582 0 553 0 523.8 0C494.7 0 465.3 0 436.2 0C407 0 378 0 349 0C320 0 291 0 262 0C233 0 204 0 174.8 0C145.7 0 116.3 0 87.2 0C58 0 29 0 14.5 0L0 0Z" fill="#fefbfc"></path></svg>